<svg width="14" height="14" viewBox="0 0 14 14" fill="none" xmlns="http://www.w3.org/2000/svg">
<g clip-path="url(#clip0_76_1857)">
<path d="M3.04792 7.93127L7.16799 12.4226C7.50096 12.8151 7.45271 13.4032 7.06022 13.7362C6.66773 14.0692 6.07962 14.0209 5.74665 13.6284L0.26773 7.65576C0.188946 7.5766 0.125103 7.48386 0.0792772 7.38202C0.0222898 7.25541 -0.0056319 7.11766 -0.00243963 6.97886L-0.00242595 6.978C0.0007464 6.83951 0.0346738 6.70345 0.0969002 6.57968C0.102951 6.5677 0.10926 6.55585 0.115822 6.54414C0.153795 6.47619 0.200201 6.41332 0.253935 6.35701L5.87853 0.288665C6.22842 -0.088829 6.81808 -0.111196 7.19556 0.238681C7.57304 0.588558 7.59542 1.17823 7.24554 1.55571L3.06379 6.06737H13.0506C13.5653 6.06737 13.9825 6.48462 13.9825 6.99933C13.9825 7.51403 13.5653 7.93128 13.0506 7.93128H3.04792V7.93127Z" fill="black"/>
</g>
<defs>
<clipPath id="clip0_76_1857">
<rect width="14" height="14" fill="white"/>
</clipPath>
</defs>
</svg>
