<svg width="20" height="20" viewBox="0 0 20 20" fill="none" xmlns="http://www.w3.org/2000/svg">
<path d="M5.21108 10.5021C5.21108 10.9439 4.85288 11.3021 4.41108 11.3021C3.96929 11.3021 3.61108 10.9439 3.61108 10.5021C3.61108 10.0603 3.96929 9.7021 4.41108 9.7021C4.85288 9.7021 5.21108 10.0603 5.21108 10.5021ZM8.78081 10.5021C8.78081 10.9439 8.42261 11.3021 7.98081 11.3021C7.53901 11.3021 7.18081 10.9439 7.18081 10.5021C7.18081 10.0603 7.53901 9.7021 7.98081 9.7021C8.42261 9.7021 8.78081 10.0603 8.78081 10.5021ZM12.3506 10.5021C12.3506 10.9439 11.9924 11.3021 11.5506 11.3021C11.1088 11.3021 10.7506 10.9439 10.7506 10.5021C10.7506 10.0603 11.1088 9.7021 11.5506 9.7021C11.9924 9.7021 12.3506 10.0603 12.3506 10.5021ZM15.9204 10.5021C15.9204 10.9439 15.5622 11.3021 15.1204 11.3021C14.6786 11.3021 14.3204 10.9439 14.3204 10.5021C14.3204 10.0603 14.6786 9.7021 15.1204 9.7021C15.5622 9.7021 15.9204 10.0603 15.9204 10.5021ZM5.21108 13.2685C5.21108 13.7103 4.85288 14.0685 4.41108 14.0685C3.96929 14.0685 3.61108 13.7103 3.61108 13.2685C3.61108 12.8267 3.96929 12.4685 4.41108 12.4685C4.85288 12.4685 5.21108 12.8267 5.21108 13.2685ZM8.78081 13.2685C8.78081 13.7103 8.42261 14.0685 7.98081 14.0685C7.53901 14.0685 7.18081 13.7103 7.18081 13.2685C7.18081 12.8267 7.53901 12.4685 7.98081 12.4685C8.42261 12.4685 8.78081 12.8267 8.78081 13.2685ZM12.3506 13.2685C12.3506 13.7103 11.9924 14.0685 11.5506 14.0685C11.1088 14.0685 10.7506 13.7103 10.7506 13.2685C10.7506 12.8267 11.1088 12.4685 11.5506 12.4685C11.9924 12.4685 12.3506 12.8267 12.3506 13.2685ZM15.9204 13.2685C15.9204 13.7103 15.5622 14.0685 15.1204 14.0685C14.6786 14.0685 14.3204 13.7103 14.3204 13.2685C14.3204 12.8267 14.6786 12.4685 15.1204 12.4685C15.5622 12.4685 15.9204 12.8267 15.9204 13.2685ZM5.21108 16.0349C5.21108 16.4767 4.85288 16.8349 4.41108 16.8349C3.96929 16.8349 3.61108 16.4767 3.61108 16.0349C3.61108 15.5931 3.96929 15.2349 4.41108 15.2349C4.85288 15.2349 5.21108 15.5931 5.21108 16.0349ZM8.78081 16.0349C8.78081 16.4767 8.42261 16.8349 7.98081 16.8349C7.53901 16.8349 7.18081 16.4767 7.18081 16.0349C7.18081 15.5931 7.53901 15.2349 7.98081 15.2349C8.42261 15.2349 8.78081 15.5931 8.78081 16.0349ZM12.3506 16.0349C12.3506 16.4767 11.9924 16.8349 11.5506 16.8349C11.1088 16.8349 10.7506 16.4767 10.7506 16.0349C10.7506 15.5931 11.1088 15.2349 11.5506 15.2349C11.9924 15.2349 12.3506 15.5931 12.3506 16.0349ZM15.9204 16.0349C15.9204 16.4767 15.5622 16.8349 15.1204 16.8349C14.6786 16.8349 14.3204 16.4767 14.3204 16.0349C14.3204 15.5931 14.6786 15.2349 15.1204 15.2349C15.5622 15.2349 15.9204 15.5931 15.9204 16.0349ZM4.45649 1.59995V4.59995C4.45649 4.82087 4.63558 4.99995 4.85649 4.99995C5.07741 4.99995 5.25649 4.82087 5.25649 4.59995V1.59995C5.25649 1.37903 5.07741 1.19995 4.85649 1.19995C4.63558 1.19995 4.45649 1.37903 4.45649 1.59995ZM14.7708 1.59995V4.59995C14.7708 4.82087 14.9498 4.99995 15.1708 4.99995C15.3917 4.99995 15.5708 4.82087 15.5708 4.59995V1.59995C15.5708 1.37903 15.3917 1.19995 15.1708 1.19995C14.9498 1.19995 14.7708 1.37903 14.7708 1.59995Z" fill="black"/>
<path d="M17.3999 2.68579C18.0626 2.68579 18.5999 3.22308 18.5999 3.88579V17.6236C18.5999 18.2863 18.0626 18.8236 17.3999 18.8236H2.5999C1.93719 18.8236 1.3999 18.2863 1.3999 17.6236V3.88579C1.3999 3.22308 1.93719 2.68579 2.5999 2.68579H17.3999ZM2.5999 3.48579C2.37902 3.48579 2.1999 3.66491 2.1999 3.88579V17.6236C2.1999 17.8445 2.37902 18.0236 2.5999 18.0236H17.3999C17.6208 18.0236 17.7999 17.8445 17.7999 17.6236V3.88579C17.7999 3.66491 17.6208 3.48579 17.3999 3.48579H2.5999Z" fill="black"/>
<path d="M11.231 6.60718C11.231 5.94448 10.6937 5.40718 10.031 5.40718C9.36831 5.40718 8.83101 5.94448 8.83101 6.60718C8.83101 7.26987 9.36831 7.80718 10.031 7.80718C10.6937 7.80718 11.231 7.26987 11.231 6.60718ZM12.031 6.60718C12.031 7.71169 11.1355 8.60718 10.031 8.60718C8.92649 8.60718 8.03101 7.71169 8.03101 6.60718C8.03101 5.50267 8.92649 4.60718 10.031 4.60718C11.1355 4.60718 12.031 5.50267 12.031 6.60718Z" fill="black"/>
</svg>
