<svg width="75" height="75" viewBox="0 0 75 75" fill="none" xmlns="http://www.w3.org/2000/svg">
<g clip-path="url(#clip0_75_1843)">
<path d="M28.1343 25.7812C28.1343 27.6461 27.3935 29.4345 26.0749 30.7531C24.7563 32.0717 22.9678 32.8125 21.103 32.8125C19.2382 32.8125 17.4498 32.0717 16.1312 30.7531C14.8126 29.4345 14.0718 27.6461 14.0718 25.7812C14.0718 23.9164 14.8126 22.128 16.1312 20.8094C17.4498 19.4908 19.2382 18.75 21.103 18.75C22.9678 18.75 24.7563 19.4908 26.0749 20.8094C27.3935 22.128 28.1343 23.9164 28.1343 25.7812Z" fill="#BDBABA"/>
<path d="M9.38428 4.6875C6.89787 4.6875 4.5133 5.67522 2.75515 7.43337C0.996998 9.19153 0.00927734 11.5761 0.00927734 14.0625V60.9375C0.00927734 63.4239 0.996998 65.8085 2.75515 67.5666C4.5133 69.3248 6.89787 70.3125 9.38428 70.3125H65.6343C68.1207 70.3125 70.5053 69.3248 72.2634 67.5666C74.0216 65.8085 75.0093 63.4239 75.0093 60.9375V14.0625C75.0093 11.5761 74.0216 9.19153 72.2634 7.43337C70.5053 5.67522 68.1207 4.6875 65.6343 4.6875H9.38428ZM65.6343 9.375C66.8775 9.375 68.0698 9.86886 68.9488 10.7479C69.8279 11.627 70.3218 12.8193 70.3218 14.0625V44.5312L52.6171 35.4047C52.1775 35.1845 51.6798 35.1081 51.1944 35.1863C50.709 35.2646 50.2605 35.4935 49.9124 35.8406L32.5218 53.2312L20.053 44.925C19.6028 44.6253 19.0628 44.4905 18.5246 44.5434C17.9864 44.5964 17.483 44.8339 17.0999 45.2156L4.69678 56.25V14.0625C4.69678 12.8193 5.19064 11.627 6.06971 10.7479C6.94879 9.86886 8.14108 9.375 9.38428 9.375H65.6343Z" fill="#BDBABA"/>
</g>
<defs>
<clipPath id="clip0_75_1843">
<rect width="75" height="75" fill="white"/>
</clipPath>
</defs>
</svg>
