<svg width="14" height="14" viewBox="0 0 14 14" fill="none" xmlns="http://www.w3.org/2000/svg">
<g clip-path="url(#clip0_76_1860)">
<path d="M10.9521 6.06873L6.83201 1.57735C6.49904 1.18486 6.54729 0.596752 6.93978 0.263788C7.33227 -0.0691772 7.92038 -0.0209292 8.25335 0.371563L13.7323 6.34424C13.8111 6.4234 13.8749 6.51614 13.9207 6.61798C13.9777 6.74459 14.0056 6.88234 14.0024 7.02114L14.0024 7.022C13.9993 7.16049 13.9653 7.29655 13.9031 7.42032C13.897 7.4323 13.8907 7.44415 13.8842 7.45586C13.8462 7.52381 13.7998 7.58668 13.7461 7.64299L8.12147 13.7113C7.77158 14.0888 7.18192 14.1112 6.80444 13.7613C6.42696 13.4114 6.40458 12.8218 6.75446 12.4443L10.9362 7.93263L0.94945 7.93263C0.434744 7.93263 0.0174923 7.51538 0.0174923 7.00067C0.0174923 6.48597 0.434744 6.06872 0.94945 6.06872L10.9521 6.06872V6.06873Z" fill="black"/>
</g>
<defs>
<clipPath id="clip0_76_1860">
<rect width="14" height="14" fill="white" transform="matrix(-1 0 0 -1 14 14)"/>
</clipPath>
</defs>
</svg>
