<svg width="120" height="120" viewBox="0 0 120 120" fill="none" xmlns="http://www.w3.org/2000/svg">
<g opacity="0.5">
<path d="M96 85.44V88.8C96 92.76 92.76 96 88.8 96H31.2C27.24 96 24 92.76 24 88.8V85.44C24 76.68 34.2 71.4 43.8 67.2C44.16 67.08 44.4 66.96 44.76 66.72C45.48 66.36 46.32 66.36 47.04 66.84C50.88 69.36 55.32 70.8 60 70.8C64.68 70.8 69.12 69.36 72.96 66.96C73.68 66.48 74.52 66.48 75.24 66.84C75.6 66.96 75.84 67.08 76.2 67.32C85.8 71.4 96 76.68 96 85.44Z" fill="black"/>
<path d="M60.0001 63.6C69.875 63.6 77.8801 54.7352 77.8801 43.8C77.8801 32.8648 69.875 24 60.0001 24C50.1253 24 42.1201 32.8648 42.1201 43.8C42.1201 54.7352 50.1253 63.6 60.0001 63.6Z" fill="black"/>
</g>
</svg>
