<svg width="50" height="50" viewBox="0 0 50 50" fill="none" xmlns="http://www.w3.org/2000/svg">
<path fill-rule="evenodd" clip-rule="evenodd" d="M25.0001 4.16675C30.5254 4.16675 35.8245 6.36168 39.7315 10.2687C43.6385 14.1757 45.8334 19.4747 45.8334 25.0001C45.8334 36.506 36.506 45.8334 25.0001 45.8334C13.4941 45.8334 4.16675 36.506 4.16675 25.0001C4.16675 13.4941 13.4941 4.16675 25.0001 4.16675ZM27.0834 27.0834H22.9167C17.7591 27.0834 13.331 30.2072 11.4212 34.6662C14.443 38.9037 19.3989 41.6667 25.0001 41.6667C30.6013 41.6667 35.5571 38.9037 38.579 34.666C36.6692 30.2072 32.2411 27.0834 27.0834 27.0834ZM25.0001 10.4167C21.5483 10.4167 18.7501 13.215 18.7501 16.6667C18.7501 20.1185 21.5483 22.9167 25.0001 22.9167C28.4519 22.9167 31.2501 20.1185 31.2501 16.6667C31.2501 13.215 28.4519 10.4167 25.0001 10.4167Z" fill="black"/>
</svg>
