<svg width="30" height="30" viewBox="0 0 30 30" fill="none" xmlns="http://www.w3.org/2000/svg">
<path d="M11.7574 20.625H8.4375C6.94566 20.625 5.51492 20.0324 4.46002 18.9775C3.40513 17.9226 2.8125 16.4918 2.8125 15C2.8125 13.5082 3.40513 12.0774 4.46002 11.0225C5.51492 9.96763 6.94566 9.375 8.4375 9.375H11.6842M18.3158 9.375H21.5625C23.0543 9.375 24.4851 9.96763 25.54 11.0225C26.5949 12.0774 27.1875 13.5082 27.1875 15C27.1875 16.4918 26.5949 17.9226 25.54 18.9775C24.4851 20.0324 23.0543 20.625 21.5625 20.625H18.2426M9.90645 15H20.2107" stroke="black" stroke-width="2.8125" stroke-linecap="square" stroke-linejoin="round"/>
</svg>
